<svg width="21" height="15" viewBox="0 0 21 15" fill="none" xmlns="http://www.w3.org/2000/svg">
<path fill-rule="evenodd" clip-rule="evenodd" d="M5.13127 8.59277V6.38147C5.13127 4.3218 4.18835 3.36053 2.1637 3.36053H2V1.78084C2 1.12549 2.52908 0.592773 3.17865 0.592773H17.82C18.4709 0.592773 19 1.12549 19 1.78084V3.28801H18.835C16.8601 3.28801 15.8268 4.84397 15.8268 6.38147V8.59277H5.13127Z" fill="#8F95AC" fill-opacity="0.5"/>
<path fill-rule="evenodd" clip-rule="evenodd" d="M17.3934 14.5928C17.3033 14.5928 17.2301 14.5233 17.2301 14.4392V13.458H3.76856V14.4392C3.76856 14.5233 3.69544 14.5928 3.60534 14.5928H2.18723C2.09843 14.5928 2.024 14.5233 2.024 14.4392V13.458H1.17523C0.52624 13.458 0 12.9668 0 12.3611V6.23145C0 5.75366 0.191954 5.59277 0.75998 5.59277H2.61031C3.11043 5.59277 3.36376 5.85239 3.36376 6.36309V9.52601C3.36376 9.96236 3.74506 10.317 4.21254 10.317H16.7862C17.2549 10.317 17.6349 9.96236 17.6349 9.52601V6.69096C17.6349 6.43378 17.6989 5.59277 18.5477 5.59277H20.1578C20.8538 5.59277 21 6.18879 21 6.69096V12.3611C21 12.9668 20.4725 13.458 19.8235 13.458H18.976V14.4392C18.976 14.5221 18.9003 14.5928 18.8115 14.5928H17.3934Z" fill="#8F95AC"/>
</svg>
